<mxfile host="app.diagrams.net" modified="2023-06-29T15:47:41.063Z" agent="Mozilla/5.0 (Windows NT 10.0; Win64; x64) AppleWebKit/537.36 (KHTML, like Gecko) Chrome/114.0.0.0 Safari/537.36" etag="nFEYKcqbfVssImfxXzsx" version="21.5.0" type="github">
  <diagram name="第 1 页" id="yASNAl4SJbTepCrGvHwo">
    <mxGraphModel dx="1388" dy="577" grid="0" gridSize="10" guides="1" tooltips="1" connect="1" arrows="1" fold="1" page="0" pageScale="1" pageWidth="827" pageHeight="1169" math="0" shadow="0">
      <root>
        <mxCell id="0" />
        <mxCell id="1" parent="0" />
        <mxCell id="1CYka7XP4tXuZ3wrE9-C-7" style="edgeStyle=orthogonalEdgeStyle;rounded=0;orthogonalLoop=1;jettySize=auto;html=1;entryX=0;entryY=0.5;entryDx=0;entryDy=0;strokeWidth=2;endArrow=block;endFill=1;dashed=1;" edge="1" parent="1" source="1CYka7XP4tXuZ3wrE9-C-1" target="1CYka7XP4tXuZ3wrE9-C-2">
          <mxGeometry relative="1" as="geometry" />
        </mxCell>
        <mxCell id="1CYka7XP4tXuZ3wrE9-C-1" value="&lt;font style=&quot;font-size: 19px;&quot;&gt;&lt;b&gt;A&lt;/b&gt;&lt;/font&gt;" style="rounded=1;whiteSpace=wrap;html=1;strokeWidth=2;fillWeight=4;hachureGap=8;hachureAngle=45;fillColor=#dae8fc;sketch=1;strokeColor=#6c8ebf;" vertex="1" parent="1">
          <mxGeometry x="126" y="261" width="75" height="75" as="geometry" />
        </mxCell>
        <mxCell id="1CYka7XP4tXuZ3wrE9-C-2" value="&lt;span style=&quot;font-size: 19px;&quot;&gt;&lt;b&gt;B&lt;br&gt;&lt;/b&gt;&lt;/span&gt;" style="rounded=1;whiteSpace=wrap;html=1;strokeWidth=2;fillWeight=4;hachureGap=8;hachureAngle=45;fillColor=#dae8fc;sketch=1;strokeColor=#6c8ebf;" vertex="1" parent="1">
          <mxGeometry x="345" y="261" width="75" height="75" as="geometry" />
        </mxCell>
        <mxCell id="1CYka7XP4tXuZ3wrE9-C-8" value="&lt;font color=&quot;#97d077&quot; style=&quot;font-size: 20px;&quot;&gt;&lt;b&gt;A 依赖 B，没有 B，A 什么都不是&lt;/b&gt;&lt;/font&gt;" style="text;html=1;align=center;verticalAlign=middle;resizable=0;points=[];autosize=1;strokeColor=none;fillColor=none;" vertex="1" parent="1">
          <mxGeometry x="121" y="366" width="317" height="36" as="geometry" />
        </mxCell>
        <mxCell id="1CYka7XP4tXuZ3wrE9-C-10" value="&lt;font style=&quot;font-size: 15px;&quot; color=&quot;#666666&quot;&gt;made by god23bin&lt;/font&gt;" style="text;html=1;align=center;verticalAlign=middle;resizable=0;points=[];autosize=1;strokeColor=none;fillColor=none;opacity=50;textOpacity=30;rotation=0;" vertex="1" parent="1">
          <mxGeometry x="-57" y="211" width="141" height="30" as="geometry" />
        </mxCell>
        <mxCell id="1CYka7XP4tXuZ3wrE9-C-15" style="edgeStyle=orthogonalEdgeStyle;rounded=0;orthogonalLoop=1;jettySize=auto;html=1;entryX=0;entryY=0.5;entryDx=0;entryDy=0;curved=1;fillColor=#d5e8d4;strokeColor=#82b366;endArrow=block;endFill=1;strokeWidth=3;" edge="1" parent="1" source="1CYka7XP4tXuZ3wrE9-C-12" target="1CYka7XP4tXuZ3wrE9-C-13">
          <mxGeometry relative="1" as="geometry" />
        </mxCell>
        <mxCell id="1CYka7XP4tXuZ3wrE9-C-16" style="edgeStyle=orthogonalEdgeStyle;rounded=0;orthogonalLoop=1;jettySize=auto;html=1;entryX=0;entryY=0.5;entryDx=0;entryDy=0;curved=1;fillColor=#d5e8d4;strokeColor=#82b366;endArrow=block;endFill=1;strokeWidth=3;" edge="1" parent="1" source="1CYka7XP4tXuZ3wrE9-C-12" target="1CYka7XP4tXuZ3wrE9-C-14">
          <mxGeometry relative="1" as="geometry" />
        </mxCell>
        <mxCell id="1CYka7XP4tXuZ3wrE9-C-12" value="&lt;font style=&quot;font-size: 14px;&quot;&gt;&lt;b&gt;依赖注入的两种主要方式&lt;/b&gt;&lt;/font&gt;" style="rounded=1;whiteSpace=wrap;html=1;strokeWidth=2;fillWeight=4;hachureGap=8;hachureAngle=45;sketch=1;fillColor=#f5f5f5;fontColor=#333333;strokeColor=#666666;" vertex="1" parent="1">
          <mxGeometry x="31.5" y="583" width="177" height="50" as="geometry" />
        </mxCell>
        <mxCell id="1CYka7XP4tXuZ3wrE9-C-13" value="&lt;font style=&quot;font-size: 14px;&quot;&gt;&lt;b&gt;基于构造方法的依赖注入&lt;/b&gt;&lt;/font&gt;" style="rounded=1;whiteSpace=wrap;html=1;strokeWidth=2;fillWeight=4;hachureGap=8;hachureAngle=45;fillColor=#d5e8d4;sketch=1;strokeColor=#82b366;" vertex="1" parent="1">
          <mxGeometry x="351.5" y="511" width="176" height="50" as="geometry" />
        </mxCell>
        <mxCell id="1CYka7XP4tXuZ3wrE9-C-14" value="&lt;font style=&quot;font-size: 14px;&quot;&gt;&lt;b&gt;基于 Setter 的依赖注入&lt;/b&gt;&lt;/font&gt;" style="rounded=1;whiteSpace=wrap;html=1;strokeWidth=2;fillWeight=4;hachureGap=8;hachureAngle=45;fillColor=#d5e8d4;sketch=1;strokeColor=#82b366;" vertex="1" parent="1">
          <mxGeometry x="351.5" y="652" width="176" height="50" as="geometry" />
        </mxCell>
        <mxCell id="1CYka7XP4tXuZ3wrE9-C-17" value="&lt;font style=&quot;font-size: 15px;&quot; color=&quot;#666666&quot;&gt;made by god23bin&lt;/font&gt;" style="text;html=1;align=center;verticalAlign=middle;resizable=0;points=[];autosize=1;strokeColor=none;fillColor=none;opacity=50;textOpacity=30;rotation=0;" vertex="1" parent="1">
          <mxGeometry x="-57" y="471" width="141" height="30" as="geometry" />
        </mxCell>
        <mxCell id="1CYka7XP4tXuZ3wrE9-C-22" style="edgeStyle=orthogonalEdgeStyle;rounded=0;orthogonalLoop=1;jettySize=auto;html=1;exitX=0.5;exitY=1;exitDx=0;exitDy=0;entryX=0.5;entryY=1;entryDx=0;entryDy=0;curved=1;fillColor=#dae8fc;strokeColor=#6c8ebf;strokeWidth=3;endArrow=block;endFill=1;" edge="1" parent="1" source="1CYka7XP4tXuZ3wrE9-C-19" target="1CYka7XP4tXuZ3wrE9-C-20">
          <mxGeometry relative="1" as="geometry">
            <Array as="points">
              <mxPoint x="170.5" y="1113.97" />
              <mxPoint x="388.5" y="1113.97" />
            </Array>
          </mxGeometry>
        </mxCell>
        <mxCell id="1CYka7XP4tXuZ3wrE9-C-19" value="&lt;font style=&quot;font-size: 19px;&quot;&gt;&lt;b&gt;A&lt;/b&gt;&lt;/font&gt;" style="rounded=1;whiteSpace=wrap;html=1;strokeWidth=2;fillWeight=4;hachureGap=8;hachureAngle=45;fillColor=#dae8fc;sketch=1;strokeColor=#6c8ebf;" vertex="1" parent="1">
          <mxGeometry x="132.5" y="950.97" width="75" height="75" as="geometry" />
        </mxCell>
        <mxCell id="1CYka7XP4tXuZ3wrE9-C-23" style="edgeStyle=orthogonalEdgeStyle;rounded=0;orthogonalLoop=1;jettySize=auto;html=1;entryX=0.5;entryY=0;entryDx=0;entryDy=0;curved=1;fillColor=#d5e8d4;strokeColor=#82b366;strokeWidth=3;endArrow=block;endFill=1;" edge="1" parent="1" source="1CYka7XP4tXuZ3wrE9-C-20" target="1CYka7XP4tXuZ3wrE9-C-19">
          <mxGeometry relative="1" as="geometry">
            <Array as="points">
              <mxPoint x="388.5" y="851.97" />
              <mxPoint x="170.5" y="851.97" />
            </Array>
          </mxGeometry>
        </mxCell>
        <mxCell id="1CYka7XP4tXuZ3wrE9-C-20" value="&lt;span style=&quot;font-size: 19px;&quot;&gt;&lt;b&gt;B&lt;br&gt;&lt;/b&gt;&lt;/span&gt;" style="rounded=1;whiteSpace=wrap;html=1;strokeWidth=2;fillWeight=4;hachureGap=8;hachureAngle=45;fillColor=#d5e8d4;sketch=1;strokeColor=#82b366;" vertex="1" parent="1">
          <mxGeometry x="351.5" y="950.97" width="75" height="75" as="geometry" />
        </mxCell>
        <mxCell id="1CYka7XP4tXuZ3wrE9-C-21" value="&lt;font style=&quot;font-size: 15px;&quot; color=&quot;#666666&quot;&gt;made by god23bin&lt;/font&gt;" style="text;html=1;align=center;verticalAlign=middle;resizable=0;points=[];autosize=1;strokeColor=none;fillColor=none;opacity=50;textOpacity=30;rotation=0;" vertex="1" parent="1">
          <mxGeometry x="-57" y="837" width="141" height="30" as="geometry" />
        </mxCell>
        <mxCell id="1CYka7XP4tXuZ3wrE9-C-24" value="&lt;font style=&quot;font-size: 14px;&quot;&gt;&lt;b&gt;循环依赖&lt;/b&gt;&lt;/font&gt;" style="rounded=1;whiteSpace=wrap;html=1;strokeWidth=2;fillWeight=4;hachureGap=8;hachureAngle=45;sketch=1;fillColor=#f5f5f5;fontColor=#333333;strokeColor=#666666;" vertex="1" parent="1">
          <mxGeometry x="-32" y="964.21" width="91" height="48.53" as="geometry" />
        </mxCell>
        <mxCell id="1CYka7XP4tXuZ3wrE9-C-25" value="&lt;font color=&quot;#97d077&quot; style=&quot;font-size: 20px;&quot;&gt;&lt;b&gt;A 依赖 B，B 依赖 A，两者相互依赖的问题&lt;/b&gt;&lt;/font&gt;" style="text;html=1;align=center;verticalAlign=middle;resizable=0;points=[];autosize=1;strokeColor=none;fillColor=none;" vertex="1" parent="1">
          <mxGeometry x="92.5" y="1131" width="397" height="36" as="geometry" />
        </mxCell>
      </root>
    </mxGraphModel>
  </diagram>
</mxfile>
